# ProBuilder 5.2.4
# https://unity3d.com/unity/features/worldbuilding/probuilder
# 12/13/2025 8:48:04 AM

mtllib ./Grass.mtl
o Grass

g Grass
v -0.003366858 0.9999 0
v -0.003366858 0 0
v -0.003366858 0.9999 0.5892155
v -0.003366858 0 0.5892155
v -0.483946 0.9999 -0.3182652
v 0 0.9999 0
v -0.483946 0 -0.3182652
v 0 0 0
v 0.4927896 0 -0.2390639
v 0.4927896 0.9999 -0.2390639

vt 0.5763489 0.9999
vt 0.5763489 0
vt 0.8944645 0.9999
vt 0.8944645 0
vt 0 0.9999
vt 0.5791829 0.9999
vt 0 0
vt 0.5791829 0
vt 0.8649094 0
vt 0.8649094 0.9999

vn -1 0 0
vn -0.5494715 0 0.8355125
vn 0.436474 0 0.8997169

usemtl Bloody_Botany_BlendedGrass
f 4/4/1 3/3/1 1/1/1 2/2/1
f 7/7/2 8/8/2 6/6/2 5/5/2
f 9/9/3 10/10/3 6/6/3 8/8/3

